<?xml version="1.0" encoding="UTF-8" standalone="no"?>
<svg
   version="1.0"
   width="596.56158pt"
   height="121.64951pt"
   viewBox="0 0 596.56159 121.64952"
   preserveAspectRatio="xMidYMid"
   id="svg17783"
   sodipodi:docname="border_bottom.svg"
   inkscape:version="1.2.1 (9c6d41e410, 2022-07-14, custom)"
   xmlns:inkscape="http://www.inkscape.org/namespaces/inkscape"
   xmlns:sodipodi="http://sodipodi.sourceforge.net/DTD/sodipodi-0.dtd"
   xmlns="http://www.w3.org/2000/svg"
   xmlns:svg="http://www.w3.org/2000/svg">
  <defs
     id="defs17787" />
  <sodipodi:namedview
     id="namedview17785"
     pagecolor="#ffffff"
     bordercolor="#666666"
     borderopacity="1.0"
     inkscape:showpageshadow="2"
     inkscape:pageopacity="0.0"
     inkscape:pagecheckerboard="0"
     inkscape:deskcolor="#d1d1d1"
     inkscape:document-units="pt"
     showgrid="false"
     inkscape:zoom="1.0880921"
     inkscape:cx="365.77787"
     inkscape:cy="-178.29373"
     inkscape:window-width="1912"
     inkscape:window-height="1039"
     inkscape:window-x="4"
     inkscape:window-y="37"
     inkscape:window-maximized="1"
     inkscape:current-layer="svg17783" />
  <g
     id="g17797"
     transform="matrix(0.1,0,0,-0.1,-113.43839,161.64951)"
     style="fill:#bdc1c6;stroke:none;fill-opacity:1">
    <path
       d="m 3610,5200 c -65,-65 33,-158 207,-194 38,-8 82,-20 98,-27 l 30,-12 -40,-7 c -22,-4 -58,-12 -80,-17 -46,-11 -65,-7 -65,13 0,18 -19,18 -26,0 -10,-25 15,-55 54,-67 30,-8 50,-8 99,5 85,22 117,21 136,-6 21,-33 31,-16 12,21 -16,32 -81,85 -117,97 -19,6 -19,6 2,29 25,26 20,59 -10,75 -11,6 -63,13 -117,16 -54,3 -110,10 -125,16 -32,12 -45,43 -28,63 19,23 -6,19 -30,-5 z"
       id="path17749"
       style="fill:#bdc1c6;fill-opacity:1" />
    <path
       d="m 4521,5201 c 16,-24 6,-49 -23,-60 -13,-5 -69,-11 -126,-15 -56,-3 -111,-10 -122,-16 -30,-16 -35,-49 -11,-73 l 20,-21 -52,-31 c -46,-28 -97,-83 -97,-106 0,-18 29,-8 35,11 8,25 36,26 131,4 68,-16 73,-16 110,2 29,14 39,25 39,43 0,13 -6,26 -12,29 -7,2 -13,-3 -13,-11 0,-23 -20,-26 -75,-11 -27,7 -63,13 -80,14 l -30,1 27,14 c 15,8 59,22 98,30 98,21 165,51 200,92 35,39 38,75 10,103 -26,26 -44,26 -29,1 z"
       id="path17751"
       style="fill:#bdc1c6;fill-opacity:1" />
    <path
       d="m 3951,4764 c -20,-14 -22,-23 -18,-55 3,-22 3,-39 1,-39 -2,0 -28,13 -57,29 -210,117 -499,63 -578,-109 l -24,-51 -48,4 c -32,3 -56,12 -72,27 -42,39 -28,90 24,90 19,0 22,-3 13,-12 -17,-17 -15,-26 7,-38 48,-25 72,35 26,66 -28,18 -69,13 -97,-13 -20,-18 -23,-64 -7,-95 13,-24 83,-57 122,-58 25,0 27,-3 27,-44 0,-43 -1,-44 -67,-85 l -68,-41 -3,30 c -4,33 -35,60 -70,60 -42,0 -97,-37 -147,-100 -67,-83 -97,-103 -156,-104 -56,-1 -89,23 -89,65 0,35 24,59 59,59 34,0 55,-22 48,-51 -4,-16 -1,-20 15,-17 12,2 26,11 32,21 16,25 -3,49 -53,67 -39,14 -44,13 -78,-5 -42,-23 -57,-61 -41,-106 19,-55 105,-76 226,-55 92,16 152,42 291,125 57,34 105,60 106,59 1,-2 12,-22 23,-44 43,-85 146,-143 271,-151 167,-12 281,60 305,195 4,24 2,32 -9,32 -8,0 -15,-8 -15,-17 0,-9 -9,-36 -21,-60 -38,-79 -168,-130 -266,-104 -93,25 -94,118 -1,109 21,-2 38,-2 38,0 0,2 -7,16 -15,31 -17,34 -58,53 -119,53 -53,1 -87,-18 -108,-62 l -15,-31 -13,30 c -7,17 -10,37 -7,45 13,34 294,146 365,146 13,0 13,-3 -1,-18 -20,-22 -22,-66 -4,-79 32,-25 42,-21 42,16 v 36 h 80 c 75,0 80,1 83,23 4,25 18,24 105,-8 l 47,-18 v 29 c 0,17 -15,51 -35,81 -48,69 -45,101 9,108 38,5 39,6 22,23 -10,9 -21,17 -26,17 -5,0 -14,2 -22,5 -7,3 -24,-2 -37,-11 z m -167,-48 c 55,-17 159,-82 202,-127 l 29,-31 -35,7 c -56,12 -80,23 -80,39 0,15 -29,26 -72,26 -15,0 -37,10 -48,23 -20,21 -22,21 -35,4 -7,-10 -11,-26 -8,-36 4,-16 -6,-19 -99,-25 -57,-3 -142,-15 -190,-25 -96,-20 -105,-12 -40,33 57,39 86,46 182,46 99,0 126,13 116,56 -8,29 8,31 78,10 z m -359,-209 c -60,-30 -111,-50 -113,-46 -2,4 3,20 11,36 13,24 26,30 94,44 124,26 125,22 8,-34 z m -375,-207 c 0,-9 -90,-60 -107,-60 -4,0 8,16 27,35 32,33 80,48 80,25 z"
       id="path17753"
       style="fill:#bdc1c6;fill-opacity:1" />
    <path
       d="m 4160,4773 c -8,-3 -23,-13 -34,-22 -17,-15 -16,-16 20,-21 54,-7 57,-39 9,-109 -19,-30 -35,-66 -35,-81 v -28 l 48,18 c 85,31 102,33 102,10 0,-23 2,-24 95,-24 l 70,-1 v -38 c 0,-43 7,-46 40,-13 26,26 25,46 -3,79 -13,15 -13,17 0,17 45,0 186,-47 275,-91 107,-53 107,-52 80,-107 l -11,-22 -12,29 c -18,42 -57,64 -110,63 -61,0 -102,-19 -119,-53 -8,-15 -15,-29 -15,-31 0,-2 20,-2 45,0 40,4 46,1 56,-22 26,-57 -53,-105 -150,-91 -101,15 -168,66 -192,146 -13,42 -36,48 -31,8 7,-56 26,-91 69,-129 76,-67 192,-87 316,-55 91,23 154,70 189,140 11,22 22,42 24,44 2,2 21,-7 41,-21 89,-59 207,-120 279,-144 137,-46 268,-34 300,28 43,83 -47,157 -136,111 -38,-19 -49,-45 -30,-68 19,-23 49,-19 43,5 -11,41 41,65 88,40 27,-15 26,-71 -2,-96 -27,-25 -104,-25 -141,0 -15,10 -52,48 -82,85 -74,93 -141,122 -193,86 -12,-8 -23,-29 -25,-45 l -3,-29 -67,42 c -67,41 -68,43 -68,84 0,40 2,43 28,43 38,1 108,34 121,58 16,31 13,77 -6,95 -46,41 -123,24 -123,-28 0,-30 36,-44 58,-22 13,14 13,18 2,32 -12,15 -11,16 15,13 35,-4 50,-27 41,-62 -8,-32 -56,-56 -110,-56 -27,0 -35,5 -40,23 -10,39 -61,102 -112,135 -67,45 -134,63 -234,63 -95,0 -202,-30 -270,-75 l -37,-25 4,43 c 5,37 2,46 -18,60 -25,17 -26,17 -49,9 z m 295,-64 c -4,-13 0,-27 11,-40 14,-16 31,-19 106,-19 57,0 102,-5 125,-15 42,-18 103,-62 103,-74 0,-5 -39,0 -87,10 -49,10 -134,22 -190,25 -99,7 -102,8 -97,29 3,13 -1,27 -11,35 -13,11 -19,10 -36,-8 -11,-12 -32,-22 -47,-22 -43,0 -72,-11 -72,-26 0,-15 -24,-27 -80,-39 l -35,-7 25,27 c 61,66 205,144 268,145 19,0 22,-4 17,-21 z m 285,-167 c 75,-16 87,-21 98,-45 7,-15 12,-31 10,-36 -2,-4 -52,16 -113,46 -120,58 -120,60 5,35 z m 451,-268 c 34,-35 34,-35 6,-25 -79,30 -112,61 -64,61 13,0 38,-15 58,-36 z"
       id="path17755"
       style="fill:#bdc1c6;fill-opacity:1" />
    <path
       d="m 1130,4622 c -31,-25 -37,-88 -11,-129 44,-70 136,-116 303,-151 54,-12 117,-30 140,-41 l 43,-19 -46,-1 c -26,-1 -64,-7 -85,-15 -71,-24 -111,-28 -128,-11 -8,9 -13,22 -10,30 8,21 -10,19 -30,-4 -25,-28 -7,-64 46,-90 54,-26 82,-26 178,-1 111,29 147,27 168,-10 19,-33 30,-37 38,-16 15,38 -53,111 -148,161 -32,17 -58,33 -58,36 0,3 11,11 24,17 44,20 39,77 -10,108 -20,14 -59,19 -168,25 -77,4 -150,10 -161,14 -34,14 -55,37 -55,63 0,14 8,31 18,38 16,12 16,13 -4,14 -12,0 -32,-8 -44,-18 z"
       id="path17757"
       style="fill:#bdc1c6;fill-opacity:1" />
    <path
       d="m 6995,4620 c 25,-27 13,-66 -28,-86 -23,-12 -71,-19 -172,-24 -154,-7 -200,-21 -211,-65 -7,-29 18,-75 41,-75 30,0 14,-16 -50,-49 -73,-37 -145,-111 -145,-147 0,-33 22,-30 42,6 14,25 23,30 55,30 21,0 71,-9 112,-20 85,-23 118,-25 158,-9 65,24 95,86 53,109 -17,9 -20,8 -20,-14 0,-34 -25,-39 -95,-19 -33,9 -85,19 -115,22 l -55,6 45,18 c 25,11 85,27 135,38 118,25 189,52 246,94 83,60 101,163 33,194 -37,17 -49,13 -29,-9 z"
       id="path17759"
       style="fill:#bdc1c6;fill-opacity:1" />
    <path
       d="m 5975,4540 c -263,-56 -388,-262 -208,-342 70,-31 198,-23 273,17 86,47 122,119 85,172 -8,11 -24,23 -35,26 -26,7 -26,-5 0,-21 73,-45 -70,-183 -206,-198 -61,-7 -120,12 -147,47 -17,23 -18,32 -8,62 26,77 135,159 265,199 54,16 85,20 145,15 88,-6 134,-22 174,-62 103,-105 -15,-256 -263,-336 -77,-25 -125,-33 -250,-42 -136,-9 -198,-8 -488,13 -351,24 -447,23 -500,-4 -38,-20 -38,-41 1,-41 15,0 26,3 25,6 -2,3 4,14 12,24 13,16 29,17 175,12 88,-3 286,-20 440,-37 240,-27 305,-31 455,-27 189,5 254,18 344,71 94,55 157,161 141,237 -28,129 -141,207 -310,215 -44,2 -98,-1 -120,-6 z"
       id="path17761"
       style="fill:#bdc1c6;fill-opacity:1" />
    <path
       d="m 1995,4526 c -139,-35 -225,-124 -225,-233 1,-127 114,-229 297,-268 116,-25 360,-19 668,16 321,36 541,47 573,30 12,-6 22,-19 22,-27 0,-11 9,-14 33,-12 76,7 -3,59 -101,65 -37,3 -202,-5 -367,-17 -543,-40 -767,-14 -956,112 -186,124 -138,296 87,315 82,7 165,-12 255,-58 81,-41 155,-115 165,-164 8,-46 -2,-64 -47,-87 -72,-37 -189,-13 -275,58 -68,55 -81,114 -31,134 l 22,9 h -22 c -12,1 -31,-11 -43,-26 -57,-73 38,-176 188,-203 140,-25 252,33 252,131 0,145 -288,276 -495,225 z"
       id="path17763"
       style="fill:#bdc1c6;fill-opacity:1" />
  </g>
  <g
     id="g17807"
     transform="matrix(0.1,0,0,-0.1,-113.43839,161.64951)"
     style="fill:#bdc1c6;stroke:none;fill-opacity:1">
    <path
       d="m 2092,1605 c -127,-29 -239,-102 -276,-179 -20,-42 -21,-126 -2,-169 30,-70 106,-124 213,-152 71,-19 119,-19 206,0 124,26 235,94 273,166 36,70 2,143 -81,175 -70,26 -194,16 -264,-21 -58,-32 -101,-85 -101,-125 0,-33 34,-70 63,-70 21,0 21,1 -3,13 -44,22 -39,62 16,114 62,60 123,87 199,87 70,1 117,-16 135,-48 59,-112 -209,-290 -410,-273 -113,9 -189,55 -206,124 -18,69 55,167 163,221 210,106 416,119 1018,66 210,-19 309,-15 355,12 39,22 41,38 5,42 -17,2 -27,-2 -32,-15 -4,-10 -11,-21 -17,-25 -29,-20 -278,-3 -636,43 -204,27 -530,34 -618,14 z"
       id="path17765"
       style="fill:#bdc1c6;fill-opacity:1" />
    <path
       d="m 5440,1570 c -409,-45 -576,-44 -567,3 3,16 -43,21 -57,7 -8,-8 -6,-15 9,-26 54,-40 143,-43 525,-18 392,26 617,11 779,-54 150,-58 251,-153 251,-234 0,-41 -32,-89 -78,-115 -65,-38 -191,-44 -290,-14 -128,39 -262,154 -262,226 0,52 101,97 182,80 52,-11 146,-65 178,-102 41,-47 40,-90 -4,-106 -25,-10 -13,-21 14,-12 59,19 63,100 7,155 -57,58 -109,75 -224,75 -98,0 -102,-1 -140,-31 -21,-17 -42,-42 -47,-56 -34,-96 93,-222 265,-263 224,-52 417,34 454,203 17,79 -57,192 -162,245 -102,52 -144,59 -363,62 -171,3 -249,-2 -470,-25 z"
       id="path17767"
       style="fill:#bdc1c6;fill-opacity:1" />
    <path
       d="m 1740,1475 c -18,-46 -42,-49 -164,-20 -98,23 -118,25 -155,15 -76,-20 -117,-85 -71,-110 17,-9 20,-8 20,9 0,43 29,43 178,4 71,-19 73,-20 45,-31 -33,-13 -85,-26 -168,-42 -143,-29 -246,-87 -276,-156 -17,-37 -18,-50 -9,-78 6,-19 21,-38 36,-45 37,-17 49,-13 29,9 -25,27 -13,66 27,86 24,12 72,19 178,23 84,4 154,12 167,19 51,28 54,90 6,116 l -27,14 55,27 c 93,47 146,96 163,151 10,32 -22,41 -34,9 z"
       id="path17769"
       style="fill:#bdc1c6;fill-opacity:1" />
    <path
       d="m 6470,1446 c -29,-36 75,-145 181,-189 l 34,-14 -33,-17 c -29,-15 -33,-21 -30,-53 5,-63 33,-74 202,-83 115,-7 153,-12 179,-27 38,-23 49,-69 21,-90 -17,-12 -16,-13 5,-13 30,0 71,43 71,75 0,102 -99,172 -314,222 -61,14 -127,34 -146,44 l -35,18 36,1 c 20,0 71,9 113,20 86,22 122,15 113,-21 -6,-22 2,-24 28,-6 42,31 -14,98 -94,113 -22,4 -70,-1 -130,-16 -116,-27 -139,-25 -167,17 -18,27 -24,30 -34,19 z"
       id="path17771"
       style="fill:#bdc1c6;fill-opacity:1" />
    <path
       d="m 2750,1429 c -45,-19 -60,-40 -60,-85 0,-34 5,-47 26,-63 48,-38 139,-21 151,27 4,18 1,29 -12,39 -30,21 -42,16 -37,-17 3,-24 0,-32 -21,-41 -40,-18 -81,7 -85,53 -4,47 24,68 92,68 h 50 l 97,-100 c 96,-99 108,-106 169,-101 35,3 50,19 50,52 0,16 2,29 4,29 3,0 34,-19 70,-41 65,-41 66,-42 66,-85 0,-42 -1,-44 -29,-44 -73,0 -131,-44 -131,-100 0,-46 26,-72 73,-73 42,-1 67,17 67,49 0,29 -36,42 -58,21 -13,-13 -13,-19 -2,-31 10,-13 10,-16 -4,-16 -29,0 -56,20 -56,40 0,46 30,71 101,84 36,6 37,6 63,-48 46,-93 135,-153 264,-176 106,-19 258,13 344,72 36,25 37,24 31,-22 -7,-47 8,-70 44,-70 29,0 63,17 63,30 0,6 -10,10 -23,10 -13,0 -31,6 -41,13 -18,13 -18,15 1,58 11,24 30,53 42,63 28,25 31,92 4,81 -33,-14 -106,-35 -120,-35 -7,0 -13,7 -13,15 0,24 -34,35 -82,26 -64,-11 -91,1 -86,39 5,32 -2,36 -33,20 -21,-12 -25,-50 -8,-82 10,-19 9,-20 -33,-13 -110,19 -328,120 -328,153 1,9 6,27 13,40 13,22 13,22 30,-13 25,-52 72,-70 143,-55 37,8 60,19 74,37 29,37 25,43 -25,43 -55,0 -76,26 -51,65 24,36 55,48 121,47 110,-1 190,-53 216,-142 7,-22 18,-40 26,-40 16,0 16,5 -2,66 -17,59 -60,104 -130,136 -41,19 -66,23 -140,22 -143,-1 -250,-54 -297,-147 -11,-23 -21,-43 -23,-44 -1,-2 -53,28 -116,66 -159,95 -233,123 -339,127 -47,2 -96,-1 -110,-7 z m 294,-62 c 44,-24 58,-47 29,-47 -20,1 -38,13 -67,48 -24,28 -12,28 38,-1 z m 520,-295 c -5,-7 -174,31 -188,42 -8,6 -18,23 -22,39 l -6,27 109,-52 c 61,-29 109,-54 107,-56 z m 108,-42 c 55,-5 102,-10 104,-10 2,0 1,-7 -3,-15 -3,-9 2,-24 11,-34 17,-18 18,-18 41,5 18,18 35,24 65,24 33,0 43,4 47,20 4,13 19,23 47,31 22,5 49,13 60,16 29,8 12,-11 -57,-63 -77,-58 -172,-104 -215,-104 -29,0 -32,3 -27,19 4,13 -1,27 -14,40 -18,18 -32,21 -103,19 -58,-1 -95,4 -122,16 -45,19 -106,63 -106,76 0,4 39,0 86,-11 47,-10 130,-23 186,-29 z"
       id="path17773"
       style="fill:#bdc1c6;fill-opacity:1" />
    <path
       d="m 4482,1412 c -88,-32 -152,-108 -152,-182 0,-44 16,-37 29,14 13,51 68,107 127,127 22,7 66,13 99,14 70,0 111,-21 121,-60 9,-37 -11,-55 -62,-55 h -45 l 15,-28 c 17,-32 51,-51 110,-58 50,-6 83,10 112,53 23,35 36,31 47,-15 5,-20 -4,-27 -81,-66 -91,-46 -185,-78 -262,-91 -44,-7 -45,-7 -27,12 24,27 22,69 -5,87 -31,22 -33,21 -33,-21 v -38 h -79 c -73,0 -80,-2 -85,-21 -6,-22 -6,-22 -61,-4 -30,10 -63,21 -72,25 -32,13 -22,-47 17,-106 23,-34 35,-62 33,-78 -3,-22 -9,-26 -41,-29 -38,-3 -38,-4 -21,-23 10,-11 30,-19 50,-19 41,0 59,27 49,77 l -6,34 39,-26 c 70,-46 176,-76 272,-76 98,0 165,18 232,60 49,31 104,98 114,138 5,17 13,23 35,23 69,0 132,-52 116,-94 -7,-18 -54,-42 -63,-33 -4,4 -2,12 4,20 16,18 -1,39 -29,35 -31,-4 -39,-46 -13,-65 27,-19 77,-16 102,7 55,51 7,135 -84,148 l -49,7 -3,45 -2,45 64,38 c 36,20 67,37 70,37 3,0 6,-11 6,-24 0,-38 25,-56 78,-56 45,0 48,2 138,94 73,75 100,96 129,102 51,9 97,-6 113,-38 27,-56 -26,-106 -85,-79 -20,9 -24,17 -20,36 3,19 0,25 -13,25 -29,0 -45,-27 -32,-55 23,-49 133,-51 167,-2 38,55 4,118 -76,137 -116,28 -262,-16 -465,-140 -35,-22 -68,-40 -73,-40 -4,0 -16,18 -26,40 -23,51 -73,96 -143,128 -76,34 -205,41 -280,14 z m 746,-77 c -36,-33 -84,-48 -76,-24 4,12 86,59 103,59 5,0 -7,-16 -27,-35 z m -338,-179 c 0,-1 -5,-16 -10,-33 -10,-27 -16,-30 -99,-46 -119,-23 -127,-21 -51,12 36,15 81,38 100,50 31,19 60,27 60,17 z m -635,-107 c 27,-7 45,-18 48,-29 3,-13 18,-20 52,-25 27,-5 55,-16 66,-29 19,-20 21,-20 34,-3 7,10 11,26 8,36 -4,16 6,19 104,25 59,3 137,13 173,21 36,8 74,14 84,15 18,0 19,-1 1,-20 -10,-11 -42,-32 -72,-46 -47,-23 -65,-26 -143,-25 -99,1 -126,-12 -117,-57 4,-23 3,-24 -36,-18 -59,10 -166,69 -228,127 -30,28 -46,48 -35,45 10,-4 38,-11 61,-17 z"
       id="path17775"
       style="fill:#bdc1c6;fill-opacity:1" />
    <path
       d="m 4053,733 -19,-27 -81,18 c -117,27 -183,13 -183,-40 0,-27 17,-32 26,-9 8,19 34,18 114,-4 l 65,-18 -35,-11 c -19,-6 -68,-18 -108,-27 -80,-16 -142,-45 -178,-80 -31,-31 -34,-99 -5,-115 27,-14 26,-14 26,22 0,45 30,58 138,58 107,0 157,17 157,54 0,14 -9,31 -21,40 -21,14 -20,15 22,36 53,27 86,56 105,92 19,36 2,44 -23,11 z"
       id="path17777"
       style="fill:#bdc1c6;fill-opacity:1" />
    <path
       d="m 4157,754 c -23,-23 22,-81 93,-121 45,-25 47,-28 29,-41 -26,-18 -24,-58 4,-76 13,-8 64,-16 126,-19 109,-7 151,-22 151,-55 0,-10 -5,-23 -12,-30 -9,-9 -9,-12 3,-12 25,0 49,34 49,67 0,63 -82,119 -215,147 -39,8 -84,20 -100,27 l -30,13 25,4 c 14,2 50,10 80,18 53,14 56,14 73,-7 13,-17 21,-19 29,-11 18,18 -22,65 -65,76 -26,7 -51,5 -94,-7 -84,-24 -110,-22 -126,8 -7,14 -16,23 -20,19 z"
       id="path17779"
       style="fill:#bdc1c6;fill-opacity:1" />
  </g>
</svg>
