<?xml version="1.0" encoding="UTF-8" standalone="no"?>
<!-- Created with Inkscape (http://www.inkscape.org/) -->

<svg
   width="5.0646372mm"
   height="4.75249mm"
   viewBox="0 0 5.0646372 4.75249"
   version="1.1"
   id="svg13986"
   inkscape:version="1.2.1 (9c6d41e410, 2022-07-14, custom)"
   sodipodi:docname="primordiallogo3.svg"
   xmlns:inkscape="http://www.inkscape.org/namespaces/inkscape"
   xmlns:sodipodi="http://sodipodi.sourceforge.net/DTD/sodipodi-0.dtd"
   xmlns="http://www.w3.org/2000/svg"
   xmlns:svg="http://www.w3.org/2000/svg">
  <sodipodi:namedview
     id="namedview13988"
     pagecolor="#ffffff"
     bordercolor="#666666"
     borderopacity="1.0"
     inkscape:showpageshadow="2"
     inkscape:pageopacity="0.0"
     inkscape:pagecheckerboard="0"
     inkscape:deskcolor="#d1d1d1"
     inkscape:document-units="mm"
     showgrid="true"
     showguides="true"
     inkscape:lockguides="false"
     inkscape:zoom="21.355273"
     inkscape:cx="3.5120132"
     inkscape:cy="9.2248879"
     inkscape:window-width="1912"
     inkscape:window-height="1039"
     inkscape:window-x="4"
     inkscape:window-y="37"
     inkscape:window-maximized="1"
     inkscape:current-layer="layer2">
    <inkscape:grid
       type="xygrid"
       id="grid28641"
       originx="-85.48233"
       originy="-156.64361" />
  </sodipodi:namedview>
  <defs
     id="defs13983" />
  <g
     inkscape:groupmode="layer"
     id="layer2"
     inkscape:label="Layer 1"
     style="display:inline"
     transform="translate(-85.482329,-156.64365)">
    <path
       id="rect28747-1"
       style="font-variation-settings:normal;display:none;fill:#744125;fill-opacity:1;stroke:none;stroke-width:0.116796;stroke-linecap:butt;stroke-linejoin:miter;stroke-miterlimit:4;stroke-dasharray:none;stroke-dashoffset:0;stroke-opacity:1;stop-color:#000000"
       d="m 86.121905,158.23902 a 0.62875516,0.2657759 66.906615 0 0 0.345517,0.7703 0.62875516,0.2657759 66.906615 0 0 0.04632,0.0407 l 0.09631,0.0554 a 0.62875516,0.2657759 66.906615 0 0 0.008,0.003 v 0.002 l 3.136191,1.80502 a 0.62875516,0.2657759 66.906615 0 1 0.336411,0.7613 v -0.57681 -0.008 -0.0844 a 0.62875516,0.2657759 66.906615 0 0 -0.345515,-0.77031 0.62875516,0.2657759 66.906615 0 0 -0.04632,-0.0407 l -0.09631,-0.0554 a 0.62875516,0.2657759 66.906615 0 0 -0.008,-0.003 v -0.002 L 86.617994,158.423 v -0.002 a 0.62875516,0.2657759 66.906615 0 1 -0.008,-0.003 l -0.09631,-0.0554 a 0.62875516,0.2657759 66.906615 0 1 -0.04632,-0.0407 0.62875516,0.2657759 66.906615 0 1 -0.345516,-0.77031 v 0.5854 l 7.5e-4,4.3e-4 a 0.62875516,0.2657759 66.906615 0 0 -7.5e-4,0.008 z m 0,-0.78037 a 0.62875516,0.2657759 66.906615 0 1 7.5e-4,-0.008 l -7.5e-4,-4.3e-4 z m 3.967914,4.31923 7.5e-4,4.3e-4 v -0.009 a 0.62875516,0.2657759 66.906615 0 1 -7.5e-4,0.008 z" />
    <path
       id="rect28747"
       style="font-variation-settings:normal;display:none;fill:#9999ff;fill-opacity:1;stroke:none;stroke-width:0.116796;stroke-linecap:butt;stroke-linejoin:miter;stroke-miterlimit:4;stroke-dasharray:none;stroke-dashoffset:0;stroke-opacity:1;stop-color:#000000"
       d="m 86.121899,162.11561 a 0.62875516,0.2657759 66.906615 0 0 0.345517,0.7703 0.62875516,0.2657759 66.906615 0 0 0.04632,0.0407 l 0.09631,0.0554 a 0.62875516,0.2657759 66.906615 0 0 0.008,0.003 v 0.002 l 3.136192,1.80502 a 0.62875516,0.2657759 66.906615 0 1 0.33641,0.76131 v -0.57682 -0.008 -0.0844 a 0.62875516,0.2657759 66.906615 0 0 -0.345515,-0.7703 0.62875516,0.2657759 66.906615 0 0 -0.04632,-0.0407 l -0.09631,-0.0554 a 0.62875516,0.2657759 66.906615 0 0 -0.008,-0.003 v -0.002 l -2.976515,-1.71313 v -0.002 a 0.62875516,0.2657759 66.906615 0 1 -0.008,-0.003 l -0.09631,-0.0554 a 0.62875516,0.2657759 66.906615 0 1 -0.04632,-0.0407 0.62875516,0.2657759 66.906615 0 1 -0.345516,-0.77031 v 0.5854 l 7.5e-4,4.3e-4 a 0.62875516,0.2657759 66.906615 0 0 -7.5e-4,0.008 z m 0,-0.78037 a 0.62875516,0.2657759 66.906615 0 1 7.5e-4,-0.008 l -7.5e-4,-4.3e-4 z m 3.967914,4.31923 7.5e-4,4.3e-4 v -0.009 a 0.62875516,0.2657759 66.906615 0 1 -7.5e-4,0.008 z" />
    <path
       id="earth"
       style="font-variation-settings:normal;display:inline;opacity:1;fill:#bf4040;fill-opacity:1;stroke:none;stroke-width:0.208881;stroke-linecap:butt;stroke-linejoin:miter;stroke-miterlimit:4;stroke-dasharray:none;stroke-dashoffset:0;stroke-opacity:1;stop-color:#000000;stop-opacity:1"
       d="m 87.973961,157.42706 a 1.9843754,1.9843732 0 0 0 -1.984375,1.98438 1.9843754,1.9843732 0 0 0 0.568958,1.38958 1.4552083,1.4552112 0 0 1 -0.03979,-0.33125 1.4552083,1.4552112 0 0 1 1.455208,-1.45521 1.4552083,1.4552112 0 0 1 1.455208,1.45521 1.4552083,1.4552112 0 0 1 -0.03979,0.33125 1.9843754,1.9843732 0 0 0 0.568958,-1.38958 1.9843754,1.9843732 0 0 0 -1.984375,-1.98438 z" />
    <path
       id="rect28747-3"
       style="font-variation-settings:normal;display:none;fill:#ff9999;fill-opacity:1;stroke:none;stroke-width:0.116796;stroke-linecap:butt;stroke-linejoin:miter;stroke-miterlimit:4;stroke-dasharray:none;stroke-dashoffset:0;stroke-opacity:1;stop-color:#000000"
       d="m 86.121903,164.8654 a 0.2657759,0.62875516 23.093385 0 1 0.345516,-0.7703 0.2657759,0.62875516 23.093385 0 1 0.04632,-0.0407 l 0.09631,-0.0554 a 0.2657759,0.62875516 23.093385 0 1 0.008,-0.003 v -0.002 l 3.136192,-1.80502 a 0.2657759,0.62875516 23.093385 0 0 0.336412,-0.7613 v 0.57681 0.008 0.0844 a 0.2657759,0.62875516 23.093385 0 1 -0.345516,0.77031 0.2657759,0.62875516 23.093385 0 1 -0.04632,0.0407 l -0.09632,0.0554 a 0.2657759,0.62875516 23.093385 0 1 -0.008,0.003 v 0.002 l -2.976515,1.71312 v 0.002 a 0.2657759,0.62875516 23.093385 0 0 -0.008,0.003 l -0.09632,0.0554 a 0.2657759,0.62875516 23.093385 0 0 -0.04631,0.0407 0.2657759,0.62875516 23.093385 0 0 -0.34552,0.77031 v -0.58541 l 7.5e-4,-4.3e-4 a 0.2657759,0.62875516 23.093385 0 1 -7.5e-4,-0.008 z m 0,0.78037 a 0.2657759,0.62875516 23.093385 0 0 7.5e-4,0.008 l -7.5e-4,4.4e-4 z m 3.967914,-4.31922 7.5e-4,-4.4e-4 v 0.009 a 0.2657759,0.62875516 23.093385 0 0 -7.5e-4,-0.008 z" />
    <path
       id="path70233"
       style="display:inline;opacity:1;fill:#3d8f3d;fill-opacity:1;stroke-width:0.100549;stop-color:#000000;stop-opacity:1"
       d="m 89.174154,156.99194 c 0,0 0.350198,0.18478 0.472152,0.52413 0.122326,0.3392 -0.03052,0.70477 -0.03052,0.70477 0,0 -0.350197,-0.18478 -0.472151,-0.52413 -0.122332,-0.33921 0.03051,-0.70477 0.03051,-0.70477 z"
       sodipodi:nodetypes="cscsc" />
    <path
       id="path70233-8"
       style="display:inline;fill:#3d8f3d;fill-opacity:1;stroke-width:0.100549;stop-color:#000000"
       d="m 86.861456,156.99622 c 0,0 -0.350198,0.18478 -0.472152,0.52413 -0.122326,0.3392 0.03052,0.70477 0.03052,0.70477 0,0 0.350197,-0.18478 0.472151,-0.52413 0.122332,-0.33921 -0.03051,-0.70477 -0.03051,-0.70477 z"
       sodipodi:nodetypes="cscsc" />
    <g
       id="leaf_crown"
       style="display:none">
      <path
         id="path70233-8-4"
         style="display:inline;fill:#66cc66;fill-opacity:1;stroke-width:0.100549;stop-color:#000000"
         d="m 90.077479,157.17621 c 0,0 -0.350198,0.18478 -0.472152,0.52413 -0.122326,0.3392 0.03052,0.70477 0.03052,0.70477 0,0 0.350197,-0.18478 0.472151,-0.52413 0.122332,-0.33921 -0.03051,-0.70477 -0.03051,-0.70477 z"
         sodipodi:nodetypes="cscsc" />
      <path
         id="path70233-8-4-1"
         style="display:inline;fill:#66cc66;fill-opacity:1;stroke-width:0.100549;stop-color:#000000"
         d="m 89.717992,156.95567 c 0,0 -0.350198,0.18478 -0.472152,0.52413 -0.122326,0.3392 0.03052,0.70477 0.03052,0.70477 0,0 0.350197,-0.18478 0.472151,-0.52413 0.122332,-0.33921 -0.03051,-0.70477 -0.03051,-0.70477 z"
         sodipodi:nodetypes="cscsc" />
      <path
         id="path70233-5"
         style="fill:#8cd98c;fill-opacity:1;stroke-width:0.100549;stop-color:#000000"
         d="m 89.18428,157.2594 c 0,0 0.350198,0.18478 0.472152,0.52413 0.122326,0.3392 -0.03052,0.70477 -0.03052,0.70477 0,0 -0.350197,-0.18478 -0.472151,-0.52413 -0.122332,-0.33921 0.03051,-0.70477 0.03051,-0.70477 z"
         sodipodi:nodetypes="cscsc" />
      <path
         id="path70233-8-4-7"
         style="fill:#66cc66;fill-opacity:1;stroke-width:0.100549;stop-color:#000000"
         d="m 89.390782,157.29348 c 0,0 -0.350198,0.18478 -0.472152,0.52413 -0.122326,0.3392 0.03052,0.70477 0.03052,0.70477 0,0 0.350197,-0.18478 0.472151,-0.52413 0.122332,-0.33921 -0.03051,-0.70477 -0.03051,-0.70477 z"
         sodipodi:nodetypes="cscsc" />
      <path
         id="path70233-69"
         style="fill:#8cd98c;fill-opacity:1;stroke-width:0.100549;stop-color:#000000"
         d="m 88.543123,157.15841 c 0,0 0.350198,0.18478 0.472152,0.52413 0.122326,0.3392 -0.03052,0.70477 -0.03052,0.70477 0,0 -0.350197,-0.18478 -0.472151,-0.52413 -0.122332,-0.33921 0.03051,-0.70477 0.03051,-0.70477 z"
         sodipodi:nodetypes="cscsc" />
      <path
         id="path70233-2"
         style="display:inline;fill:#8cd98c;fill-opacity:1;stroke-width:0.100549;stop-color:#000000"
         d="m 86.476276,157.0551 c 0,0 0.350199,0.18478 0.472152,0.52413 0.122326,0.3392 -0.03052,0.70477 -0.03052,0.70477 0,0 -0.350196,-0.18478 -0.47215,-0.52413 -0.122332,-0.33921 0.03051,-0.70477 0.03051,-0.70477 z"
         sodipodi:nodetypes="cscsc" />
      <path
         id="path70233-2-6"
         style="display:inline;fill:#8cd98c;fill-opacity:1;stroke-width:0.100549;stop-color:#000000"
         d="m 86.191993,157.22625 c 0,0 0.350199,0.18478 0.472152,0.52413 0.122326,0.3392 -0.03052,0.70477 -0.03052,0.70477 0,0 -0.350196,-0.18478 -0.47215,-0.52413 -0.122332,-0.33921 0.03051,-0.70477 0.03051,-0.70477 z"
         sodipodi:nodetypes="cscsc" />
      <path
         id="path70233-8-4-7-8"
         style="fill:#66cc66;fill-opacity:1;stroke-width:0.100549;stop-color:#000000"
         d="m 86.991942,157.30091 c 0,0 -0.350198,0.18478 -0.472152,0.52413 -0.122326,0.3392 0.03052,0.70477 0.03052,0.70477 0,0 0.350197,-0.18478 0.472151,-0.52413 0.122332,-0.33921 -0.03051,-0.70477 -0.03051,-0.70477 z"
         sodipodi:nodetypes="cscsc" />
      <path
         id="path70233-69-2"
         style="fill:#8cd98c;fill-opacity:1;stroke-width:0.100549;stop-color:#000000"
         d="m 86.881703,157.20927 c 0,0 0.350198,0.18478 0.472152,0.52413 0.122326,0.3392 -0.03052,0.70477 -0.03052,0.70477 0,0 -0.350197,-0.18478 -0.472151,-0.52413 -0.122332,-0.33921 0.03051,-0.70477 0.03051,-0.70477 z"
         sodipodi:nodetypes="cscsc" />
      <path
         id="path70233-8-4-7-9"
         style="fill:#66cc66;fill-opacity:1;stroke-width:0.100549;stop-color:#000000"
         d="m 87.62205,157.14119 c 0,0 -0.350198,0.18478 -0.472152,0.52413 -0.122326,0.3392 0.03052,0.70477 0.03052,0.70477 0,0 0.350197,-0.18478 0.472151,-0.52413 0.122332,-0.33921 -0.03051,-0.70477 -0.03051,-0.70477 z"
         sodipodi:nodetypes="cscsc" />
      <path
         id="path70233-8-4-7-96"
         style="fill:#66cc66;fill-opacity:1;stroke-width:0.100549;stop-color:#000000"
         d="m 88.728086,157.09977 c 0,0 -0.350198,0.18478 -0.472152,0.52413 -0.122326,0.3392 0.03052,0.70477 0.03052,0.70477 0,0 0.350197,-0.18478 0.472151,-0.52413 0.122332,-0.33921 -0.03051,-0.70477 -0.03051,-0.70477 z"
         sodipodi:nodetypes="cscsc" />
      <path
         id="path70233-69-0"
         style="fill:#8cd98c;fill-opacity:1;stroke-width:0.100549;stop-color:#000000"
         d="m 87.426891,157.11783 c 0,0 0.350198,0.18478 0.472152,0.52413 0.122326,0.3392 -0.03052,0.70477 -0.03052,0.70477 0,0 -0.350197,-0.18478 -0.472151,-0.52413 -0.122332,-0.33921 0.03051,-0.70477 0.03051,-0.70477 z"
         sodipodi:nodetypes="cscsc" />
      <path
         id="path70233-8-4-7-96-2"
         style="fill:#66cc66;fill-opacity:1;stroke-width:0.100549;stop-color:#000000"
         d="m 88.134627,157.09665 c 0,0 -0.350198,0.18478 -0.472152,0.52413 -0.122326,0.3392 0.03052,0.70477 0.03052,0.70477 0,0 0.350197,-0.18478 0.472151,-0.52413 0.122332,-0.33921 -0.03051,-0.70477 -0.03051,-0.70477 z"
         sodipodi:nodetypes="cscsc" />
      <path
         id="path70233-69-0-7"
         style="fill:#8cd98c;fill-opacity:1;stroke-width:0.100549;stop-color:#000000"
         d="m 87.975293,157.04565 c 0,0 0.350198,0.18478 0.472152,0.52413 0.122326,0.3392 -0.03052,0.70477 -0.03052,0.70477 0,0 -0.350197,-0.18478 -0.472151,-0.52413 -0.122332,-0.33921 0.03051,-0.70477 0.03051,-0.70477 z"
         sodipodi:nodetypes="cscsc" />
    </g>
  </g>
  <g
     inkscape:groupmode="layer"
     id="layer4"
     inkscape:label="Layer 3"
     style="display:inline"
     transform="translate(-85.482329,-156.64365)">
    <g
       id="g5672"
       transform="matrix(1.0050961,0,0,1,-0.44231314,3.1754967)"
       style="fill:#ffffff;fill-opacity:1">
      <path
         id="rect5327"
         style="fill:#ffffff;fill-opacity:1;stroke-width:0.264583;stop-color:#000000"
         d="m 87.731593,155.31042 0.492018,-0.001 -0.205944,2.91043 -0.09023,7.9e-4 z"
         sodipodi:nodetypes="ccccc" />
      <rect
         style="fill:#ffffff;fill-opacity:1;stroke:none;stroke-width:0.264583;stop-color:#000000"
         id="rect5332"
         width="1.8520833"
         height="0.26458332"
         x="87.047913"
         y="155.04584" />
      <path
         id="rect5334"
         style="fill:#ffffff;fill-opacity:1;stroke-width:0.529164;stop-color:#000000"
         d="m 87.841667,153.9875 h 0.264583 l 0.114339,1.06106 -0.492709,-6e-4 z"
         sodipodi:nodetypes="ccccc" />
      <path
         id="path5388"
         style="fill:#ffffff;fill-opacity:1;stroke-width:0.264583;stop-color:#000000"
         d="m 89.425138,155.18506 c -10e-7,0.0731 -0.187493,0.38994 -0.260555,0.38994 -0.07306,0 -0.264578,-0.19152 -0.264583,-0.26458 -2e-6,-0.0253 -0.01229,-0.2445 0,-0.26459 0.02325,-0.038 0.216786,-0.26458 0.264583,-0.26458 0.07307,0 0.260559,0.33075 0.260555,0.40381 z"
         sodipodi:nodetypes="ssssss" />
      <path
         id="path5388-0"
         style="display:inline;fill:#ffffff;fill-opacity:1;stroke-width:0.264583;stop-color:#000000"
         d="m 86.522836,155.17754 c 10e-7,0.0731 0.187493,0.38994 0.260555,0.38994 0.07306,0 0.264578,-0.19152 0.264583,-0.26458 2e-6,-0.0253 0.01229,-0.2445 0,-0.26459 -0.02325,-0.038 -0.216786,-0.26458 -0.264583,-0.26458 -0.07307,0 -0.260559,0.33075 -0.260555,0.40381 z"
         sodipodi:nodetypes="ssssss" />
      <path
         id="path5388-9"
         style="display:inline;fill:#ffffff;fill-opacity:1;stroke-width:0.264583;stop-color:#000000"
         d="m 87.973073,153.46815 c 0.0731,1e-5 0.38994,0.1875 0.38994,0.26056 0,0.0731 -0.19152,0.26458 -0.26458,0.26458 -0.0253,0 -0.2445,0.0123 -0.26459,0 -0.038,-0.0233 -0.26458,-0.21678 -0.26458,-0.26458 0,-0.0731 0.33075,-0.26056 0.40381,-0.26056 z"
         sodipodi:nodetypes="ssssss" />
    </g>
  </g>
  <g
     inkscape:groupmode="layer"
     id="layer1"
     inkscape:label="Layer 2"
     style="display:inline"
     transform="translate(-85.482329,-156.64365)">
    <path
       id="rect28747-3-8"
       style="font-variation-settings:normal;display:none;fill:#743f25;fill-opacity:1;stroke:none;stroke-width:0.116796;stroke-linecap:butt;stroke-linejoin:miter;stroke-miterlimit:4;stroke-dasharray:none;stroke-dashoffset:0;stroke-opacity:1;stop-color:#000000"
       d="m 86.121905,160.98881 a 0.2657759,0.62875516 23.093385 0 1 0.345517,-0.7703 0.2657759,0.62875516 23.093385 0 1 0.04632,-0.0407 l 0.09631,-0.0554 a 0.2657759,0.62875516 23.093385 0 1 0.008,-0.003 v -0.002 l 3.136192,-1.80502 a 0.2657759,0.62875516 23.093385 0 0 0.336411,-0.76131 v 0.57681 0.008 0.0844 a 0.2657759,0.62875516 23.093385 0 1 -0.345519,0.77031 0.2657759,0.62875516 23.093385 0 1 -0.04631,0.0407 l -0.09632,0.0554 a 0.2657759,0.62875516 23.093385 0 1 -0.008,0.003 v 0.002 l -2.976515,1.71312 v 0.002 a 0.2657759,0.62875516 23.093385 0 0 -0.008,0.003 l -0.09632,0.0554 a 0.2657759,0.62875516 23.093385 0 0 -0.04632,0.0407 0.2657759,0.62875516 23.093385 0 0 -0.345516,0.77031 v -0.58541 l 7.5e-4,-4.3e-4 a 0.2657759,0.62875516 23.093385 0 1 -7.5e-4,-0.008 z m 0,0.78037 a 0.2657759,0.62875516 23.093385 0 0 7.5e-4,0.008 l -7.5e-4,4.3e-4 z m 3.967914,-4.31922 7.5e-4,-4.4e-4 v 0.009 a 0.2657759,0.62875516 23.093385 0 0 -7.5e-4,-0.008 z" />
    <path
       style="display:inline;fill:#4db24d;fill-opacity:1;stroke:none;stroke-width:0.13968px;stroke-linecap:butt;stroke-linejoin:miter;stroke-opacity:1"
       d="m 90.363791,159.15121 c 0,0 0.732698,-1.46456 -0.732698,-1.33142 -0.439618,0.79885 0.732698,1.33142 0.732698,1.33142 z"
       id="path657" />
    <path
       style="display:inline;fill:#4db24d;fill-opacity:1;stroke:none;stroke-width:0.13968px;stroke-linecap:butt;stroke-linejoin:miter;stroke-opacity:1"
       d="m 85.665503,159.15542 c 0,0 -0.732698,-1.46456 0.732698,-1.33142 0.439618,0.79885 -0.732698,1.33142 -0.732698,1.33142 z"
       id="path657-6" />
  </g>
</svg>
